FFmpeg version SVN-r25716, Copyright (c) 2000-2010 the FFmpeg developers  built on Nov 10 2010 12:23:18 with gcc 4.1.2 20080704 (Red Hat 4.1.2-48)  configuration: --enable-libmp3lame --enable-shared --disable-mmx --arch=x86_64  libavutil     50.33. 0 / 50.33. 0  libavcore      0.12. 1 /  0.12. 1  libavcodec    52.94. 4 / 52.94. 4  libavformat   52.84. 0 / 52.84. 0  libavdevice   52. 2. 2 / 52. 2. 2  libavfilter    1.59. 0 /  1.59. 0  libswscale     0.12. 0 /  0.12. 0Input #0, mov,mp4,m4a,3gp,3g2,mj2, from '/RAID10/data/converted_video_files/36146.mov':  Metadata:    major_brand     : qt      minor_version   : 537199360    compatible_brands: qt    Duration: 00:00:08.00, start: 0.000000, bitrate: 3735 kb/s    Stream #0.0(eng): Video: mpeg4, yuv420p, 960x432 [PAR 1:1 DAR 20:9], 3733 kb/s, 25 fps, 25 tbr, 600 tbn, 25 tbc[buffer @ 0x7173fa0] w:960 h:432 pixfmt:yuv420pOutput #0, flv, to '/RAID10/data/converted_video_files/36146.flv':  Metadata:    encoder         : Lavf52.84.0    Stream #0.0(eng): Video: flv, yuv420p, 960x432 [PAR 1:1 DAR 20:9], q=2-31, 600 kb/s, 1k tbn, 24 tbcStream mapping:  Stream #0.0 -> #0.0Press [q] to stop encodingframe=    2 fps=  0 q=2.0 size=      61kB time=0.08 bitrate=6049.6kbits/s    frame=   28 fps= 20 q=13.4 size=     252kB time=1.17 bitrate=1765.7kbits/s dup=0 drop=1    frame=   76 fps= 40 q=17.1 size=     441kB time=3.17 bitrate=1141.3kbits/s dup=0 drop=3    frame=  127 fps= 53 q=23.4 size=     619kB time=5.29 bitrate= 958.6kbits/s dup=0 drop=5    frame=  167 fps= 57 q=21.8 size=     738kB time=6.96 bitrate= 869.2kbits/s dup=0 drop=7    frame=  192 fps= 58 q=17.9 Lsize=     810kB time=8.00 bitrate= 829.3kbits/s dup=0 drop=8    video:807kB audio:0kB global headers:0kB muxing overhead 0.397345%